<?xml version="1.0" encoding="utf-8"?>
<!-- Generator: Adobe Illustrator 23.0.3, SVG Export Plug-In . SVG Version: 6.00 Build 0)  -->
<svg version="1.1" id="Layer_1" xmlns="http://www.w3.org/2000/svg" xmlns:xlink="http://www.w3.org/1999/xlink" x="0px" y="0px"
	 viewBox="0 0 354.8 81.6" style="enable-background:new 0 0 354.8 81.6;" xml:space="preserve">
<style type="text/css">
	.st0{fill:#00132B;}
</style>
<g>
	<g>
		<path class="st0" d="M1.2,70.6c-0.8-2-1.2-5.2-1.2-9.6c0-6.5,0.9-12.7,2.8-18.6C3.2,40.9,4,39.8,5,39.1c1-0.7,2.5-1,4.3-1
			c1,0,1.7,0.1,2.1,0.4c0.4,0.3,0.6,0.7,0.6,1.4c0,0.8-0.4,2.6-1.1,5.4c-0.5,2-0.9,3.8-1.2,5.3C9.4,52.1,9.2,54,9,56.2
			c1.7-4.3,3.5-7.8,5.6-10.5c2.1-2.7,4.1-4.6,6.1-5.8c2-1.2,3.8-1.7,5.5-1.7c3.3,0,4.9,1.6,4.9,4.9c0,0.7-0.2,2.2-0.7,4.7
			c-0.4,2-0.6,3.3-0.6,3.8c0,1.8,0.6,2.6,1.9,2.6c1.4,0,3.2-1.1,5.4-3.3c0.7-0.7,1.3-1,2-1c0.7,0,1.2,0.3,1.5,0.9
			c0.4,0.6,0.6,1.3,0.6,2.3c0,1.9-0.5,3.3-1.5,4.4c-1.4,1.5-3.1,2.7-4.9,3.7c-1.9,1-3.9,1.5-6,1.5c-2.7,0-4.7-0.7-6.1-2
			c-1.4-1.4-2.1-3.2-2.1-5.5c0-0.8,0.1-1.5,0.2-2.3c0.1-1,0.2-1.7,0.2-2c0-0.8-0.3-1.2-0.8-1.2c-0.8,0-1.7,0.8-3,2.5
			c-1.2,1.7-2.4,3.9-3.7,6.7c-1.2,2.8-2.2,5.7-2.9,8.7c-0.6,2.4-1.2,4-1.9,4.8c-0.7,0.8-1.9,1.2-3.4,1.2C3.3,73.6,1.9,72.6,1.2,70.6
			z"/>
		<path class="st0" d="M69.3,57.3c0.4,0.6,0.6,1.4,0.6,2.5c0,2-0.5,3.6-1.4,4.7c-1.9,2.3-4.5,4.3-7.9,6.3c-3.4,1.9-7,2.9-10.9,2.9
			c-5.3,0-9.4-1.4-12.3-4.3c-2.9-2.9-4.4-6.8-4.4-11.8c0-3.5,0.7-6.7,2.2-9.7c1.5-3,3.5-5.4,6.1-7.1c2.6-1.8,5.5-2.6,8.8-2.6
			c2.9,0,5.2,0.9,7,2.6c1.8,1.7,2.6,4.1,2.6,7c0,3.5-1.2,6.4-3.7,8.9s-6.7,4.5-12.6,5.9c1.3,2.3,3.6,3.5,7.2,3.5
			c2.3,0,4.8-0.8,7.7-2.4c2.9-1.6,5.4-3.7,7.5-6.2c0.6-0.7,1.3-1.1,2-1.1C68.4,56.4,68.9,56.7,69.3,57.3z M44,48.7
			c-1.3,2.2-1.9,4.8-1.9,7.8v0.2c3-0.7,5.3-1.8,7-3.2c1.7-1.4,2.6-3,2.6-4.9c0-1-0.3-1.7-0.8-2.3c-0.5-0.6-1.2-0.9-2.1-0.9
			C46.9,45.5,45.3,46.6,44,48.7z"/>
		<path class="st0" d="M65.1,70.6c-0.8-2-1.2-5.2-1.2-9.6c0-6.5,0.9-12.7,2.8-18.6c0.5-1.5,1.2-2.5,2.2-3.2c1-0.7,2.5-1,4.3-1
			c1,0,1.7,0.1,2.1,0.4c0.4,0.3,0.6,0.7,0.6,1.4c0,0.8-0.4,2.6-1.1,5.4c-0.5,2-0.9,3.8-1.2,5.2c-0.3,1.5-0.6,3.3-0.8,5.5
			c1.4-3.9,3-7.2,4.9-9.9c1.9-2.7,3.8-4.7,5.8-6.1c2-1.3,3.9-2,5.6-2c1.8,0,3,0.4,3.7,1.2c0.7,0.8,1.1,2,1.1,3.7
			c0,1.6-0.5,4.5-1.4,8.7c-0.4,1.8-0.7,3.2-0.8,4.1c2.5-6.2,5.3-10.7,8.4-13.5c3.1-2.8,5.9-4.2,8.6-4.2c3.3,0,4.9,1.6,4.9,4.9
			c0,2-0.6,5.5-1.7,10.6c-1,4.4-1.4,7.3-1.4,8.7c0,2,0.7,3,2.2,3c1,0,2.2-0.6,3.6-1.8c1.4-1.2,3.2-3.2,5.5-6c0.6-0.7,1.3-1.1,2-1.1
			c0.7,0,1.2,0.3,1.5,0.9c0.4,0.6,0.6,1.4,0.6,2.5c0,2-0.5,3.6-1.4,4.7c-2.2,2.7-4.5,4.8-7,6.6c-2.5,1.7-5.3,2.6-8.5,2.6
			c-2.6,0-4.5-0.7-5.8-2.2c-1.3-1.5-2-3.6-2-6.4c0-1.4,0.4-3.9,1.1-7.5c0.7-3.2,1-5.3,1-6.6c0-0.8-0.3-1.2-0.8-1.2
			c-0.7,0-1.6,0.8-2.8,2.5c-1.2,1.7-2.4,3.9-3.6,6.7c-1.2,2.8-2.2,5.7-2.9,8.7c-0.6,2.4-1.2,4-1.9,4.8c-0.7,0.8-1.9,1.2-3.5,1.2
			c-1.7,0-2.9-0.8-3.7-2.4c-0.8-1.6-1.2-3.5-1.2-5.8c0-1.9,0.3-4.7,0.8-8.3c0.4-3.2,0.6-5.3,0.6-6.3c0-0.8-0.3-1.2-0.8-1.2
			c-0.8,0-1.7,0.9-2.9,2.7c-1.2,1.8-2.3,4.1-3.4,6.9c-1.1,2.8-1.9,5.6-2.6,8.3c-0.6,2.4-1.2,4-1.9,4.8c-0.7,0.8-1.9,1.2-3.4,1.2
			C67.2,73.6,65.8,72.6,65.1,70.6z"/>
		<path class="st0" d="M159.7,51.1c0.4,0.7,0.5,1.5,0.5,2.5c0,2.4-0.7,3.8-2.2,4.3c-3,1.1-6.3,1.7-9.9,1.8c-1,4.2-2.8,7.6-5.7,10.1
			c-2.8,2.5-6,3.8-9.6,3.8c-3,0-5.6-0.7-7.7-2.2c-2.1-1.5-3.8-3.4-4.9-5.8c-1.1-2.4-1.7-5-1.7-7.8c0-3.8,0.7-7.2,2.2-10.2
			c1.5-3,3.5-5.3,6-7c2.6-1.7,5.4-2.5,8.5-2.5c3.8,0,6.9,1.3,9.2,4c2.3,2.6,3.7,5.9,4.1,9.8c2.4-0.2,5.2-0.7,8.4-1.5
			c0.4-0.1,0.8-0.2,1.1-0.2C158.9,50.1,159.4,50.4,159.7,51.1z M137.7,63.6c1.2-1.3,2-3.2,2.4-5.7c-1.6-1.1-2.7-2.4-3.6-4.1
			c-0.8-1.7-1.2-3.5-1.2-5.4c0-0.8,0.1-1.6,0.2-2.4h-0.4c-2,0-3.7,1-5,2.9c-1.3,1.9-2,4.7-2,8.2c0,2.8,0.5,4.9,1.6,6.3
			c1.1,1.5,2.3,2.2,3.8,2.2C135.1,65.6,136.5,64.9,137.7,63.6z"/>
		<path class="st0" d="M190.8,57.3c0.4,0.6,0.6,1.4,0.6,2.5c0,2-0.5,3.6-1.4,4.7c-2.2,2.7-4.5,4.8-7.1,6.6c-2.6,1.7-5.5,2.6-8.8,2.6
			c-10.2,0-15.4-7.2-15.4-21.6c0-2.2,0.1-4.4,0.2-6.7H156c-1.5,0-2.5-0.3-3.1-0.8c-0.5-0.6-0.8-1.4-0.8-2.6c0-2.8,1.1-4.2,3.4-4.2
			h4.3c0.9-5.5,2.2-10.6,3.9-15.1c1.8-4.6,3.9-8.2,6.4-10.9c2.5-2.7,5.2-4.1,8-4.1c2.1,0,3.8,0.9,5,2.8c1.2,1.9,1.8,4.2,1.8,7
			c0,7.8-3.3,14.6-9.8,20.3h8.4c0.8,0,1.4,0.2,1.7,0.5c0.4,0.4,0.5,1,0.5,2c0,3.5-2.8,5.2-8.5,5.2h-9.2c-0.1,2.5-0.2,4.5-0.2,5.9
			c0,5.2,0.6,8.9,1.8,11c1.2,2.1,3.2,3.2,5.8,3.2c2.2,0,4.1-0.7,5.7-2c1.7-1.3,3.6-3.3,5.9-5.9c0.6-0.7,1.3-1.1,2-1.1
			C189.9,56.4,190.4,56.7,190.8,57.3z M173.5,17.5c-0.9,1.9-1.8,4.5-2.6,7.8c-0.8,3.3-1.5,7-2.1,11.1c3-2.6,5.2-5.4,6.7-8.6
			c1.5-3.2,2.2-6.1,2.2-8.7c0-3-0.6-4.4-1.7-4.4C175.3,14.7,174.5,15.6,173.5,17.5z"/>
		<path class="st0" d="M213.8,59.6c0.4,0.6,0.6,1.4,0.6,2.5c0,1.8-0.4,3.4-1.3,4.7c-1.4,2.2-3.3,3.8-5.5,5c-2.3,1.2-5,1.8-8.2,1.8
			c-4.8,0-8.6-1.4-11.2-4.3c-2.7-2.9-4-6.8-4-11.7c0-3.5,0.7-6.7,2.2-9.7c1.5-3,3.5-5.4,6.1-7.1c2.6-1.8,5.5-2.6,8.8-2.6
			c2.9,0,5.2,0.9,7,2.6c1.8,1.7,2.6,4.1,2.6,7c0,3.5-1.2,6.4-3.7,8.9c-2.5,2.5-6.7,4.5-12.7,5.9c1.2,2.3,3.2,3.5,6.1,3.5
			c2.1,0,3.8-0.5,5.1-1.4c1.3-1,2.9-2.6,4.6-4.8c0.6-0.8,1.3-1.1,2-1.1C212.9,58.7,213.4,59,213.8,59.6z M195.2,48.7
			c-1.3,2.2-1.9,4.8-1.9,7.8v0.2c3-0.7,5.3-1.8,7-3.2c1.7-1.4,2.6-3,2.6-4.9c0-1-0.3-1.7-0.8-2.3c-0.5-0.6-1.2-0.9-2.1-0.9
			C198,45.5,196.5,46.6,195.2,48.7z"/>
	</g>
	<g>
		<path class="st0" d="M261.4,70.2c-3.9-2.2-6.9-5.4-9-9.5c-2.1-4.1-3.2-8.9-3.2-14.4c0-5.5,1.1-10.3,3.2-14.4
			c2.1-4.1,5.1-7.2,9-9.5c3.9-2.2,8.5-3.3,13.8-3.3s9.9,1.1,13.8,3.3c3.9,2.2,6.9,5.4,9,9.5c2.1,4.1,3.2,8.9,3.2,14.4
			c0,5.5-1.1,10.3-3.2,14.4c-2.1,4.1-5.1,7.3-9,9.5c-3.9,2.2-8.5,3.4-13.8,3.4S265.3,72.5,261.4,70.2z M285.5,59.8
			c2.5-3.1,3.8-7.6,3.8-13.5c0-5.9-1.3-10.4-3.8-13.4c-2.5-3.1-6-4.6-10.5-4.6c-4.5,0-7.9,1.5-10.4,4.6c-2.5,3.1-3.7,7.6-3.7,13.4
			c0,5.9,1.3,10.4,3.8,13.5c2.5,3.1,6,4.7,10.4,4.7C279.5,64.5,283,62.9,285.5,59.8z"/>
		<path class="st0" d="M354.8,67.9c0,1.4-0.5,2.6-1.6,3.7c-1.1,1.1-2.3,1.6-3.7,1.6c-1.6,0-3-0.7-4.3-2l-23.4-22.8v19.1
			c0,1.8-0.5,3.2-1.6,4.3s-2.5,1.6-4.3,1.6c-1.8,0-3.2-0.5-4.3-1.6c-1.1-1.1-1.6-2.5-1.6-4.3V25.2c0-1.8,0.5-3.2,1.6-4.2
			c1.1-1.1,2.5-1.6,4.3-1.6c1.8,0,3.2,0.5,4.3,1.6c1.1,1.1,1.6,2.5,1.6,4.2v18l22.8-22.1c1.1-1.1,2.4-1.7,3.8-1.7
			c1.4,0,2.6,0.5,3.7,1.5c1.1,1,1.6,2.2,1.6,3.7c0,1.5-0.6,2.8-1.8,3.9l-17.9,16.8L353,64.1C354.2,65.2,354.8,66.5,354.8,67.9z"/>
	</g>
	<rect x="232.3" y="6.2" class="st0" width="2.3" height="75.3"/>
</g>
<g>
	<path class="st0" d="M2.2,18.3V0.4h6.2c0.8,0,1.6,0.1,2.3,0.4c0.7,0.3,1.3,0.6,1.9,1.1c0.5,0.5,1,1.1,1.3,1.7
		c0.3,0.7,0.5,1.4,0.5,2.2c0,0.8-0.2,1.5-0.5,2.2c-0.3,0.7-0.7,1.3-1.3,1.7c-0.5,0.5-1.2,0.9-1.9,1.1c-0.7,0.3-1.5,0.4-2.3,0.4H5
		v6.9H2.2z M8.5,8.7c0.5,0,0.9-0.1,1.2-0.2c0.4-0.2,0.7-0.4,0.9-0.6s0.4-0.6,0.6-0.9c0.1-0.3,0.2-0.7,0.2-1c0-0.4-0.1-0.7-0.2-1
		c-0.1-0.3-0.3-0.6-0.6-0.9c-0.2-0.3-0.6-0.5-0.9-0.6C9.3,3.2,8.9,3.1,8.5,3.1H5v5.6H8.5z"/>
	<path class="st0" d="M16.6,0.4H23c0.8,0,1.6,0.1,2.3,0.4c0.7,0.3,1.3,0.6,1.8,1.1S28,3,28.3,3.7c0.3,0.7,0.4,1.4,0.4,2.2
		c0,0.6-0.1,1.2-0.3,1.8c-0.2,0.5-0.5,1-0.9,1.5c-0.4,0.4-0.8,0.8-1.3,1.1c-0.5,0.3-1,0.5-1.6,0.7l0,0.1l4.9,7.1v0.1h-3.3l-4.7-7
		h-2.1v7h-2.8V0.4z M22.9,8.7c0.4,0,0.8-0.1,1.2-0.2s0.7-0.3,0.9-0.6s0.5-0.5,0.6-0.9c0.2-0.3,0.2-0.7,0.2-1.1c0-0.3-0.1-0.7-0.2-1
		c-0.1-0.3-0.3-0.6-0.5-0.9c-0.2-0.3-0.5-0.5-0.9-0.6C23.9,3.1,23.5,3,23,3h-3.5v5.6H22.9z"/>
	<path class="st0" d="M40,18.7c-1.3,0-2.6-0.2-3.7-0.7c-1.1-0.5-2.1-1.1-2.9-2c-0.8-0.8-1.5-1.8-2-3c-0.5-1.1-0.7-2.4-0.7-3.7
		c0-1.3,0.2-2.5,0.7-3.6c0.5-1.1,1.1-2.1,2-3c0.8-0.8,1.8-1.5,2.9-2C37.4,0.2,38.7,0,40,0c1.3,0,2.5,0.2,3.7,0.7
		c1.1,0.5,2.1,1.2,3,2c0.8,0.9,1.5,1.8,1.9,3c0.5,1.1,0.7,2.4,0.7,3.6c0,1.3-0.2,2.5-0.7,3.7c-0.5,1.1-1.1,2.1-1.9,3
		c-0.8,0.8-1.8,1.5-3,2C42.6,18.5,41.3,18.7,40,18.7z M40,16c0.9,0,1.7-0.2,2.5-0.5c0.8-0.3,1.5-0.8,2-1.4c0.6-0.6,1-1.3,1.4-2.1
		c0.3-0.8,0.5-1.7,0.5-2.7s-0.2-1.9-0.5-2.7c-0.3-0.8-0.8-1.5-1.4-2.1c-0.6-0.6-1.3-1-2-1.4c-0.8-0.3-1.6-0.5-2.5-0.5
		c-0.9,0-1.7,0.2-2.5,0.5c-0.8,0.3-1.5,0.8-2,1.4c-0.6,0.6-1,1.3-1.4,2.1s-0.5,1.7-0.5,2.7s0.2,1.9,0.5,2.7c0.3,0.8,0.8,1.5,1.4,2.1
		c0.6,0.6,1.3,1,2,1.4C38.3,15.8,39.1,16,40,16z"/>
	<path class="st0" d="M49.8,0.4h3.1l4,11.8l0.6,2h0.1l0.7-2l4.2-11.8h3.1L59,18.3h-3L49.8,0.4z"/>
	<path class="st0" d="M67.7,0.4h2.8v17.9h-2.8V0.4z"/>
	<path class="st0" d="M74.1,0.4h5.8c1.4,0,2.7,0.2,3.8,0.7s2.1,1.1,2.9,1.8c0.8,0.8,1.4,1.7,1.8,2.8C88.8,6.8,89,8,89,9.3
		c0,1.3-0.2,2.5-0.6,3.6c-0.4,1.1-1,2-1.8,2.8c-0.8,0.8-1.8,1.4-2.9,1.8c-1.1,0.4-2.4,0.7-3.8,0.7h-5.8V0.4z M79.8,15.6
		c2,0,3.6-0.5,4.7-1.6c1.1-1.1,1.7-2.6,1.7-4.6c0-1.9-0.6-3.5-1.7-4.6c-1.1-1.1-2.7-1.7-4.7-1.7h-2.9v12.5H79.8z"/>
	<path class="st0" d="M94.5,3.1V8h7.3v2.6h-7.3v4.9h8.1v2.7H91.7V0.4h10.9v2.7H94.5z"/>
	<path class="st0" d="M105.7,0.4h5.8c1.4,0,2.7,0.2,3.8,0.7s2.1,1.1,2.9,1.8c0.8,0.8,1.4,1.7,1.8,2.8c0.4,1.1,0.6,2.3,0.6,3.6
		c0,1.3-0.2,2.5-0.6,3.6c-0.4,1.1-1,2-1.8,2.8c-0.8,0.8-1.8,1.4-2.9,1.8c-1.1,0.4-2.4,0.7-3.8,0.7h-5.8V0.4z M111.4,15.6
		c2,0,3.6-0.5,4.7-1.6c1.1-1.1,1.7-2.6,1.7-4.6c0-1.9-0.6-3.5-1.7-4.6c-1.1-1.1-2.7-1.7-4.7-1.7h-2.9v12.5H111.4z"/>
	<path class="st0" d="M128.8,0.4h6.8c0.7,0,1.4,0.1,2,0.4c0.6,0.2,1.2,0.6,1.7,1c0.5,0.4,0.9,0.9,1.2,1.5c0.3,0.6,0.4,1.2,0.4,1.9
		c0,0.9-0.2,1.7-0.7,2.3c-0.5,0.6-1,1.1-1.7,1.4v0.1c0.9,0.3,1.6,0.8,2.2,1.6c0.6,0.7,0.8,1.6,0.8,2.6c0,0.8-0.1,1.5-0.5,2.1
		c-0.3,0.6-0.7,1.1-1.2,1.6c-0.5,0.4-1.1,0.8-1.8,1c-0.7,0.2-1.4,0.4-2.2,0.4h-7.1V0.4z M135.5,7.9c0.4,0,0.8-0.1,1.1-0.2
		c0.3-0.1,0.6-0.3,0.8-0.5s0.4-0.5,0.5-0.8s0.2-0.6,0.2-0.9c0-0.3-0.1-0.6-0.2-0.9s-0.3-0.6-0.5-0.8c-0.2-0.2-0.5-0.4-0.8-0.5
		C136.3,3.1,136,3,135.6,3h-3.9v4.9H135.5z M135.9,15.7c0.4,0,0.9-0.1,1.2-0.2c0.4-0.1,0.6-0.4,0.9-0.6s0.4-0.5,0.5-0.8
		s0.2-0.6,0.2-1s-0.1-0.7-0.2-1s-0.3-0.6-0.6-0.8c-0.2-0.2-0.6-0.4-0.9-0.6s-0.8-0.2-1.2-0.2h-4.1v5.2H135.9z"/>
	<path class="st0" d="M147.9,10l-6-9.6h3.4l4,6.6h0.2l3.9-6.6h3.4l-5.9,9.6v8.3h-2.8V10z"/>
</g>
</svg>
